<?xml version="1.0" encoding="utf-8"?>
<!-- Generator: Adobe Illustrator 23.0.6, SVG Export Plug-In . SVG Version: 6.00 Build 0)  -->
<svg version="1.1" id="圖層_1" xmlns="http://www.w3.org/2000/svg" xmlns:xlink="http://www.w3.org/1999/xlink" x="0px" y="0px"
	 viewBox="0 0 357.13 68.59" style="enable-background:new 0 0 357.13 68.59;" xml:space="preserve">
<style type="text/css">
	.st0{fill:#D4211C;}
</style>
<g>
	<path class="st0" d="M62.53,29.2v24.57c3.82-5.53,6.07-12.24,6.07-19.47C68.59,15.36,53.24,0,34.3,0C15.36,0,0,15.36,0,34.3
		c0,7.67,2.52,14.75,6.77,20.47V33.63h3.39v25.03c2.11,2.09,4.49,3.9,7.09,5.39V13.64h3.39v52.12c2.25,0.98,4.62,1.72,7.09,2.2V9.89
		h3.74v58.58c0.94,0.08,1.88,0.13,2.84,0.13c1.32,0,2.62-0.08,3.9-0.23V5.3h3.39v62.51c2.47-0.53,4.84-1.34,7.09-2.37V24.97h3.39
		v38.68c2.61-1.58,4.99-3.51,7.09-5.72V29.2H62.53z"/>
</g>
<g>
	<path class="st0" d="M122.32,53.62h-8.11l-0.48-3.79c-2.08,2.46-5.55,4.7-11.58,4.7c-9.82,0-18.63-6.35-18.63-19.75
		c0-12.28,7.69-20.71,20.12-20.71c9.23,0,16.65,4.8,18.2,14.25h-11.96c-0.91-3.15-3.2-4.86-6.46-4.86c-4.96,0-7.31,4.48-7.31,11.26
		c0,5.44,1.71,10.41,8.06,10.41c2.56,0,5.82-1.76,6.46-4.43h-5.55v-8.33h17.24V53.62z"/>
	<path class="st0" d="M163.47,15.08h11.1v7.9h-11.1V15.08z M163.47,54.53V26.56h11.1v27.97H163.47z"/>
	<path class="st0" d="M198.97,54.31c-14.57,0.8-16.33-0.21-16.33-9.87V32.75h-3.95v-6.41h4.11v-8.7h10.94v8.7h5.34v6.41h-5.34v10.14
		c0,2.56,0.37,3.47,3.47,3.47h1.76V54.31z"/>
	<path class="st0" d="M224,53.73l-0.53-2.99c-3.15,2.94-6.35,3.79-10.51,3.79c-5.28,0-9.98-2.62-9.98-8.43
		c0-12.7,19.91-6.94,19.91-12.17c0-2.03-2.46-2.3-3.63-2.3c-1.55,0-3.63,0.32-3.9,2.72h-10.68c0-5.92,4.22-9.39,15.27-9.39
		c13.24,0,14.04,4.91,14.04,11.58v13.08c0,1.6,0.05,2.4,1.49,3.58v0.53H224z M222.88,41.34c-3.63,1.76-8.43,0.91-8.43,4.54
		c0,1.39,1.33,2.35,3.52,2.35C221.87,48.23,223.15,45.19,222.88,41.34z"/>
	<path class="st0" d="M240.02,26.56h10.09v5.66h0.11c1.55-4.38,4.27-6.46,8.59-6.46c0.48,0,0.96,0.11,1.44,0.16v11.1
		c-0.75-0.11-1.55-0.32-2.29-0.32c-4.54,0-6.83,2.13-6.83,8.17v9.66h-11.1V26.56z"/>
	<path class="st0" d="M282.93,54.31c-14.57,0.8-16.33-0.21-16.33-9.87V32.75h-3.95v-6.41h4.11v-8.7h10.94v8.7h5.34v6.41h-5.34v10.14
		c0,2.56,0.37,3.47,3.47,3.47h1.76V54.31z"/>
	<path class="st0" d="M288.91,15.08h11.1v7.9h-11.1V15.08z M288.91,54.53V26.56h11.1v27.97H288.91z"/>
	<path class="st0" d="M315.71,45.03c0,1.12,0.43,1.97,1.17,2.56c0.69,0.53,1.65,0.85,2.72,0.85c1.71,0,3.52-0.53,3.52-2.51
		c0-4.48-17.13-0.91-17.13-11.74c0-7.15,7.42-9.23,13.24-9.23c6.08,0,13.24,1.39,13.88,8.81h-10.09c-0.11-0.91-0.48-1.55-1.07-2.03
		c-0.59-0.48-1.39-0.69-2.24-0.69c-1.92,0-3.15,0.59-3.15,1.97c0,3.9,17.67,1.28,17.67,11.74c0,5.82-4.8,9.77-15.05,9.77
		c-6.41,0-13.45-1.97-14.04-9.5H315.71z"/>
	<path class="st0" d="M357.02,54.31c-14.57,0.8-16.33-0.21-16.33-9.87V32.75h-3.95v-6.41h4.11v-8.7h10.94v8.7h5.34v6.41h-5.34v10.14
		c0,2.56,0.37,3.47,3.47,3.47h1.76V54.31z"/>
	<path class="st0" d="M127.84,25.79c2.63,0,6.01-0.19,8.99-0.19c0,0.76,0,1.53,0,2.29c0,4.78-0.05,7.03,0.02,11.81
		c0.05,3.47,0.82,5.87,3.41,6.62c4.37,1.28,6.62-1.6,6.71-6.39c0.09-4.78,0.02-7.03,0.02-11.81c0-0.78,0-1.57,0-2.53
		c2.86,0,6.85,0.21,9.64,0.21c0.07,0.45,0.2,0.87,0.2,1.28c0.01,5.14,0.1,7.76-0.01,12.9c-0.19,9.62-6.5,15.24-16.07,14.46
		c-8.1-0.66-13.08-5.99-13.14-14.14c-0.04-5.43,0.01-8.34,0.02-13.77C127.63,26.35,127.74,26.14,127.84,25.79z"/>
</g>
</svg>
